# xmcd CD database file
#
# Track frame offsets:
#	150
#	31150
#	44237
#	57448
#	68293
#	83118
#	95128
#	112404
#	127610
#	143069
#	158297
#	173714
#	188006
#	212840
#	227957
#	245810
#	261402
#	280248
#	298966
#	313715
#	332540
#
# Disc length: 4670 seconds
#
# Revision: 2
# Processed by: cddbd v1.5.2PL0 Copyright (c) Steve Scherf et al.
# Submitted via: jetAudio 7
#
DISCID=3b123c15
DTITLE=Various Artist - Atlantic Gold - 100 Soul Classics [Disc 4]
DYEAR=2009
DGENRE=Soul
TTITLE0=Donny Hathaway - The Ghetto (Pts. 1 and 2)
TTITLE1=Tyrone Davis - Turn Back The Hands Of Time
TTITLE2=Laura Lee - What A Man
TTITLE3=Ed Robinson - Face It
TTITLE4=Dee Dee Warwick - Suspicious Minds
TTITLE5=Howard Tate - She's A Burglar
TTITLE6=Brook Benton - Rainy Night In Georgia
TTITLE7=The Persuaders - Thin Line Between Love And Hate
TTITLE8=Aretha Franklin - Until You Come Back To Me (That's What I'm Go
TTITLE8=nna Do)
TTITLE9=Donny Hathaway - Love Love Love
TTITLE10=Margie Joseph - Ridin' High
TTITLE11=The Spinners - I'll Be Around
TTITLE12=Major Harris - Love Won't Let Me Wait
TTITLE13=Bettye Swann - Kiss My Love Goodbye
TTITLE14=The Valentinos - I Can Understand It
TTITLE15=Jackie Moore - Time
TTITLE16=The Spinners - Could It Be I'm Falling In Love
TTITLE17=Blue Magic - Sideshow
TTITLE18=Vivian Reed - Save Your Love For Me
TTITLE19=Ben E. King - Supernatural Thing (Pt. 1)
TTITLE20=Eddie Harris - It's All Right Now
EXTD=
EXTT0=
EXTT1=
EXTT2=
EXTT3=
EXTT4=
EXTT5=
EXTT6=
EXTT7=
EXTT8=
EXTT9=
EXTT10=
EXTT11=
EXTT12=
EXTT13=
EXTT14=
EXTT15=
EXTT16=
EXTT17=
EXTT18=
EXTT19=
EXTT20=
PLAYORDER=
